Coordinates
version=1
nRows=12
nColumns=34
inDegrees=yes

Units are S.I. units (second, meters, Newtons, ...)
If the header above contains a line with 'inDegrees', this indicates whether rotational values are in degrees (yes) or radians (no).

endheader
time	pelvis_tilt	pelvis_list	pelvis_rotation	pelvis_tx	pelvis_ty	pelvis_tz	hip_flexion_r	hip_adduction_r	hip_rotation_r	knee_angle_r	ankle_angle_r	subtalar_angle_r	mtp_angle_r	hip_flexion_l	hip_adduction_l	hip_rotation_l	knee_angle_l	ankle_angle_l	subtalar_angle_l	mtp_angle_l	lumbar_extension	lumbar_bending	lumbar_rotation	arm_flex_r	arm_add_r	arm_rot_r	elbow_flex_r	pro_sup_r	arm_flex_l	arm_add_l	arm_rot_l	elbow_flex_l	pro_sup_l
      3.50000000	     -2.40331135	      1.73169188	    -62.20899074	      0.12461218	      0.99137779	     -0.10021000	     -1.25254362	      0.68903407	     -3.61672376	      6.07735491	     10.34577774	      1.64142295	      0.00000000	     -2.89721608	     -0.04357386	     -5.51278069	      3.58634249	     10.34387621	      1.73540189	      0.00000000	     -2.29675120	     -0.65736400	     -1.66076453	    -60.93046118	    -81.47041500	   -108.90246280	     41.21148113	    119.74817918	    102.21177944	   -106.47103858	     56.63155695	     34.70484907	    118.94795631
      3.51666670	     -2.40346862	      1.72992521	    -62.20931376	      0.12455481	      0.99140402	     -0.10030473	     -1.25295552	      0.68830113	     -3.61679701	      6.07734531	     10.34612686	      1.64123640	      0.00000000	     -2.89598667	     -0.04166004	     -5.51278288	      3.58571849	     10.34386095	      1.73562681	      0.00000000	     -2.29651530	     -0.65502493	     -1.66037017	    -60.93048845	    -81.46965412	   -108.90245079	     41.21001575	    119.74817918	    102.21200191	   -106.47072114	     56.63115665	     34.70379084	    118.94810481
      3.53333330	     -2.40979453	      1.72952199	    -62.21492157	      0.12467182	      0.99141023	     -0.10072673	     -1.23865911	      0.66946508	     -3.61854525	      6.06461047	     10.35565810	      1.63654700	      0.00000000	     -2.87859751	     -0.01734725	     -5.51326546	      3.57472428	     10.34342471	      1.74061338	      0.00000000	     -2.33414663	     -0.60378439	     -1.64796727	    -60.93153018	    -81.45960841	   -108.90127475	     41.17197008	    119.74817918	    102.21851725	   -106.45302632	     56.62229192	     34.67558038	    118.95247102
      3.55000000	     -2.40874911	      1.72903304	    -62.21526833	      0.12462732	      0.99141946	     -0.10081595	     -1.23887940	      0.66987057	     -3.61861423	      6.06467885	     10.35586625	      1.63646655	      0.00000000	     -2.87852228	     -0.01831203	     -5.51329853	      3.57449752	     10.34344571	      1.74067417	      0.00000000	     -2.33348860	     -0.60452559	     -1.64786061	    -60.93140263	    -81.45933957	   -108.90156848	     41.17086481	    119.74817918	    102.21884853	   -106.45296692	     56.62210277	     34.67449133	    118.95261720
      3.56666670	     -2.40755905	      1.72773549	    -62.21611017	      0.12458650	      0.99143224	     -0.10089667	     -1.23876076	      0.67021848	     -3.61871324	      6.06452609	     10.35612410	      1.63635443	      0.00000000	     -2.87812087	     -0.01889776	     -5.51331122	      3.57410909	     10.34347706	      1.74077929	      0.00000000	     -2.33275955	     -0.60498552	     -1.64813416	    -60.93120846	    -81.45882213	   -108.90197169	     41.16959440	    119.74817918	    102.21921039	   -106.45283578	     56.62181562	     34.67336491	    118.95277539
      3.58333330	     -2.40658179	      1.72752052	    -62.21715541	      0.12457437	      0.99143700	     -0.10097425	     -1.23910151	      0.67063781	     -3.61882701	      6.06461013	     10.35632374	      1.63624883	      0.00000000	     -2.87796098	     -0.01935341	     -5.51331237	      3.57388042	     10.34349950	      1.74088001	      0.00000000	     -2.33220223	     -0.60503716	     -1.64846829	    -60.93100223	    -81.45827106	   -108.90237373	     41.16855754	    119.74817918	    102.21950145	   -106.45273475	     56.62146711	     34.67250858	    118.95289910
      3.60000000	     -2.40524596	      1.72647226	    -62.21891003	      0.12457088	      0.99145810	     -0.10104574	     -1.23897006	      0.67071559	     -3.61897019	      6.06439915	     10.35657838	      1.63609444	      0.00000000	     -2.87765120	     -0.01960049	     -5.51328657	      3.57358823	     10.34352306	      1.74103031	      0.00000000	     -2.33137217	     -0.60447719	     -1.64934397	    -60.93067497	    -81.45732660	   -108.90298403	     41.16734031	    119.74817918	    102.21980815	   -106.45258249	     56.62091042	     34.67167259	    118.95303102
      3.61666670	     -2.40472157	      1.72625202	    -62.22077169	      0.12454268	      0.99145573	     -0.10112117	     -1.23897996	      0.67067457	     -3.61911990	      6.06424718	     10.35678846	      1.63594616	      0.00000000	     -2.87836197	     -0.01903250	     -5.51327221	      3.57388797	     10.34349488	      1.74120192	      0.00000000	     -2.33042082	     -0.60327292	     -1.65058435	    -60.93030702	    -81.45622437	   -108.90364998	     41.16628190	    119.74817918	    102.22004867	   -106.45239543	     56.62028776	     34.67110764	    118.95313588
      3.63333330	     -2.40248838	      1.72434233	    -62.23610011	      0.12458038	      0.99149078	     -0.10122069	     -1.23382780	      0.66953978	     -3.62017176	      6.06048236	     10.35843583	      1.63482615	      0.00000000	     -2.88289418	     -0.01191409	     -5.51308604	      3.57595111	     10.34320910	      1.74274069	      0.00000000	     -2.32818626	     -0.59173780	     -1.66120148	    -60.92692643	    -81.44780753	   -108.90977493	     41.15882777	    119.74817918	    102.22169657	   -106.45036794	     56.61445176	     34.66788240	    118.95389689
      3.65000000	     -2.40314540	      1.72516542	    -62.23637759	      0.12455545	      0.99148671	     -0.10126865	     -1.23435403	      0.66891212	     -3.62028247	      6.06057793	     10.35857214	      1.63469655	      0.00000000	     -2.88387491	     -0.01130588	     -5.51310322	      3.57637067	     10.34316917	      1.74288529	      0.00000000	     -2.32762166	     -0.59055066	     -1.66100336	    -60.92655013	    -81.44720460	   -108.91046981	     41.15823746	    119.74817918	    102.22191135	   -106.45077983	     56.61367523	     34.66744967	    118.95396079
      3.66666670	     -2.40266283	      1.72569866	    -62.23737602	      0.12456024	      0.99149430	     -0.10135518	     -1.23434763	      0.66866959	     -3.62040690	      6.06040211	     10.35871994	      1.63457377	      0.00000000	     -2.88520665	     -0.01084001	     -5.51313462	      3.57693552	     10.34311068	      1.74303462	      0.00000000	     -2.32648874	     -0.58894915	     -1.66131398	    -60.92608060	    -81.44617590	   -108.91132290	     41.15756345	    119.74817918	    102.22210375	   -106.45126450	     56.61272051	     34.66709426	    118.95401372
      3.68333330	     -2.40514994	      1.72425555	    -62.25209918	      0.12480615	      0.99149442	     -0.10147776	     -1.23300348	      0.64786624	     -3.62333018	      6.05465946	     10.36199823	      1.63118277	      0.00000000	     -2.89039692	      0.00918333	     -5.51322074	      3.57705771	     10.34176128	      1.74790179	      0.00000000	     -2.31777476	     -0.54502479	     -1.65824698	    -60.91304052	    -81.42779887	   -108.93543750	     41.14375478	    119.74817918	    102.22689912	   -106.46500462	     56.58547102	     34.65917161	    118.95525954
